<svg width="9" height="9" viewBox="0 0 9 9" fill="none" xmlns="http://www.w3.org/2000/svg">
<path d="M1.7025 0.2925L4.1625 2.7525L6.6325 0.3025C7.0225 -0.0874998 7.6525 -0.0874998 8.0425 0.3025C8.4325 0.6925 8.4325 1.3225 8.0425 1.7125L4.8725 4.8825C4.4825 5.2725 3.8525 5.2725 3.4625 4.8825L0.2925 1.7025C-0.0975 1.3125 -0.0975 0.6825 0.2925 0.2925C0.6825 -0.0975 1.3125 -0.0975 1.7025 0.2925Z" fill="white"/>
<path d="M6.63246 7.88255L4.17246 5.42255L1.70246 7.87255C1.31246 8.26255 0.682461 8.26255 0.292461 7.87255C-0.0975389 7.48255 -0.0975388 6.85255 0.292462 6.46255L3.46246 3.29255C3.85246 2.90255 4.48246 2.90255 4.87246 3.29255L8.04246 6.47255C8.43246 6.86255 8.43246 7.49255 8.04246 7.88255C7.65246 8.27255 7.02246 8.27255 6.63246 7.88255Z" fill="white"/>
</svg>
