<?xml version="1.0" encoding="utf-8"?>
<!-- Generator: Adobe Illustrator 25.2.0, SVG Export Plug-In . SVG Version: 6.00 Build 0)  -->
<svg version="1.1" id="Warstwa_1" xmlns="http://www.w3.org/2000/svg" xmlns:xlink="http://www.w3.org/1999/xlink" x="0px" y="0px"
	 viewBox="0 0 1000 1000" style="enable-background:new 0 0 1000 1000;" xml:space="preserve">
<style type="text/css">
	.st0{fill:#FFFFFF;}
	.st1{fill:#CD00FF;}
	.st2{fill:#00A4FF;}
</style>
<path class="st0" d="M357.82,470.33c-3.74-2.05-7.92-3.08-12.44-3.08c-8.17,0-14.87,3.05-19.93,9.06
	c-4.61-6.02-10.77-9.06-18.32-9.06c-4.86,0-9.07,1.34-12.54,4.02c-0.64,0.53-1.37,1.19-2.2,2.01v-4.21h-18.47v70.65h18.47v-36.43
	c0-6.36,0.72-10.99,2.14-13.78c0.78-1.56,1.98-2.81,3.68-3.83c1.71-1.03,3.47-1.53,5.37-1.53c3.84,0,6.25,1.66,7.58,5.22
	c1.04,2.82,1.57,6.68,1.57,11.48v38.86h18.47v-36.43c0-5.97,0.68-10.54,2.01-13.61c1.61-3.72,4.56-5.53,9.02-5.53
	c3.76,0,6.19,1.49,7.43,4.54c1.03,2.6,1.56,6.61,1.56,11.92v39.1h18.47v-43.35c0-7.33-1.16-13.29-3.47-17.73
	C364.42,475.19,361.59,472.4,357.82,470.33z"/>
<path class="st0" d="M429.22,509.42c0,4.56-0.6,7.96-1.8,10.11c-1.96,3.59-5.26,5.33-10.1,5.33c-4.84,0-8.14-1.74-10.11-5.34
	c-1.19-2.14-1.79-5.54-1.79-10.1v-40.36h-18.47v40.67c0,4.77,0.41,8.85,1.22,12.16c1,3.84,3.13,7.49,6.32,10.85
	c5.71,5.98,13.38,9.01,22.82,9.01c5.59,0,10.64-1.08,15.03-3.22c5.39-2.69,9.51-6.71,12.26-11.94c2.04-3.91,3.07-9.58,3.07-16.86
	v-40.67h-18.47V509.42z"/>
<rect x="468.18" y="419.32" class="st0" width="18.47" height="120.39"/>
<polygon class="st0" points="529.38,444.27 510.92,444.27 510.92,469.06 504.23,469.06 504.23,486.5 510.92,486.5 510.92,539.7 
	529.38,539.7 529.38,486.5 541.5,486.5 541.5,469.06 529.38,469.06 "/>
<rect x="556.17" y="469.06" class="st0" width="18.47" height="70.65"/>
<path class="st0" d="M565.52,438.37c-3.26,0-6.06,1.14-8.31,3.4c-2.26,2.26-3.4,5.03-3.4,8.23c0,3.1,1.14,5.83,3.4,8.15
	c2.25,2.26,5,3.4,8.15,3.4c3.21,0,5.98-1.14,8.23-3.4c2.26-2.26,3.4-5.03,3.4-8.23c0-3.15-1.14-5.89-3.4-8.15
	C571.34,439.52,568.63,438.37,565.52,438.37z"/>
<path class="st0" d="M619.36,417.51c-3.63,0-7.17,0.67-10.53,1.99c-3.51,1.45-6.31,3.44-8.34,5.91c-3.23,3.92-4.81,10.13-4.81,19
	v24.65h-5.59v17.44h5.59v53.2h18.47v-53.2h17.08v-17.44h-17.08v-20.87c0-6.15,0.55-8.8,1.02-10c0.69-1.94,2.12-2.84,4.5-2.84
	c2.07,0,5.27,1.09,9.52,3.23l2.04,1.03v-19.19l-0.85-0.36C626.39,418.37,622.68,417.51,619.36,417.51z"/>
<path class="st0" d="M692.73,475c-0.78-0.74-1.49-1.36-2.15-1.87c-5.06-3.9-11.01-5.88-17.7-5.88c-8.68,0-16.35,3.18-22.79,9.45
	c-7.02,6.91-10.57,16.17-10.57,27.52c0,10.26,2.83,18.87,8.43,25.61c6.55,7.91,15.09,11.92,25.4,11.92c5.49,0,10.45-1.34,14.72-3.97
	c1.4-0.83,2.95-1.97,4.65-3.41v5.34h18.47v-70.65h-18.47V475z M688.1,489.16c3.7,3.7,5.57,8.82,5.57,15.22
	c0,5.74-1.41,10.45-4.19,14.01c-3.42,4.35-7.9,6.47-13.69,6.47c-4.69,0-8.46-1.49-11.52-4.54c-3.96-4.01-5.97-9.32-5.97-15.78
	c0-5.57,1.59-10.39,4.74-14.32c3.21-4.09,7.28-6.08,12.43-6.08C680.64,484.14,684.77,485.78,688.1,489.16z"/>
<path class="st0" d="M751.05,469.56c-1.37,0.78-2.91,1.97-4.67,3.61v-4.1h-18.47v70.65h18.47v-36.5c0-6.69,1.02-11.44,3.04-14.12
	c1.94-2.63,4.66-3.91,8.31-3.91c2.47,0,5.11,1,7.84,2.96l1.33,0.96l8.57-16.95l-1.11-0.67C765.83,466.32,757.41,466,751.05,469.56z"
	/>
<path class="st0" d="M868.93,470.33c-3.74-2.05-7.92-3.08-12.44-3.08c-8.17,0-14.87,3.05-19.93,9.06
	c-4.61-6.02-10.77-9.06-18.32-9.06c-4.86,0-9.07,1.34-12.54,4.02c-0.64,0.53-1.37,1.19-2.2,2.01v-4.21h-18.47v70.65h18.47v-36.43
	c0-6.36,0.72-10.99,2.14-13.78c0.78-1.56,1.98-2.81,3.68-3.83c1.71-1.03,3.47-1.53,5.37-1.53c3.84,0,6.25,1.66,7.58,5.22
	c1.04,2.82,1.57,6.68,1.57,11.48v38.86h18.47v-36.43c0-5.97,0.68-10.54,2.01-13.61c1.61-3.72,4.56-5.53,9.02-5.53
	c3.76,0,6.19,1.49,7.43,4.54c1.03,2.6,1.56,6.61,1.56,11.92v39.1h18.47v-43.35c0-7.33-1.16-13.29-3.47-17.73
	C875.53,475.19,872.7,472.4,868.93,470.33z"/>
<path class="st0" d="M899,523.04c-2.33,0-4.32,0.82-5.94,2.44c-1.62,1.62-2.44,3.6-2.44,5.89c0,2.25,0.81,4.22,2.44,5.89
	c1.62,1.62,3.6,2.44,5.89,2.44s4.27-0.82,5.89-2.44s2.44-3.6,2.44-5.89s-0.82-4.27-2.44-5.89S901.26,523.04,899,523.04z"/>
<path class="st0" d="M925.45,462.45c-2.4,0.99-4.33,2.36-5.74,4.08c-2.23,2.7-3.31,6.85-3.31,12.7v13.79h-3.46v13.74h3.46v32.94
	h14.37v-32.94h10.58v-13.74h-10.58v-11.45c0-3.9,0.36-5.22,0.55-5.7c0.14-0.38,0.28-0.78,1.4-0.78c0.59,0,2.06,0.24,5.23,1.84
	l3.39,1.72V463.4l-1.43-0.61C934.4,460.46,929.85,460.71,925.45,462.45z"/>
<path class="st0" d="M957.93,488.9c2.39,0,4.45-0.85,6.14-2.54c1.68-1.68,2.54-3.75,2.54-6.14c0-2.36-0.85-4.4-2.54-6.09
	c-1.68-1.68-3.71-2.53-6.04-2.53c-2.42,0-4.5,0.85-6.19,2.54c-1.68,1.68-2.54,3.75-2.54,6.14c0,2.32,0.85,4.36,2.54,6.09
	C953.52,488.05,955.57,488.9,957.93,488.9z"/>
<rect x="950.76" y="493.02" class="st0" width="14.37" height="46.69"/>
<path class="st1" d="M118.23,555.51L118.23,555.51l-39.06-39.05l-0.76-0.76L58.7,535.41l0.76,0.76l39.05,39.05
	c10.89,10.89,28.54,10.89,39.43,0h0L118.23,555.51z"/>
<path class="st2" d="M193.29,519.87L193.29,519.87c10.89-10.89,10.89-28.54,0-39.43l-55.18-55.18c-10.98-10.98-28.79-10.98-39.77,0
	l-55.2,55.2c-10.88,10.88-10.88,28.51,0,39.39h0l9.86-9.85l0.01,0.01l27.68-27.68l64.71,64.7l0.03-0.03l10.37,10.37l19.69-19.69
	l-19.71-19.71l-0.02,0.02l-55.36-55.36l17.83-17.83l55.36,55.36l-0.01,0L193.29,519.87z"/>
</svg>
