<svg width="24" height="24" viewBox="0 0 24 24" fill="none" xmlns="http://www.w3.org/2000/svg">
<path d="M16.7526 9.96076C16.7526 9.70583 16.7162 9.46911 16.6434 9.23239C16.352 8.24908 15.5144 7.48428 14.4947 7.28398C14.3308 7.24756 14.1669 7.24756 14.003 7.24756H9.99694C9.97873 7.24756 9.97873 7.24756 9.96052 7.24756C9.70559 7.24756 9.46887 7.28398 9.23214 7.35682C8.24883 7.64817 7.48404 8.4858 7.28373 9.50553C7.24731 9.66941 7.24731 9.8333 7.24731 9.99718V14.0033V14.0397C7.24731 14.2946 7.28373 14.5313 7.35657 14.7681C7.64792 15.7514 8.48556 16.5162 9.50528 16.7165C9.66917 16.7529 9.83305 16.7529 9.99694 16.7529H14.003H14.0394C14.2944 16.7529 14.5311 16.7165 14.7678 16.6436C15.7511 16.3523 16.5159 15.5146 16.7162 14.4949C16.7526 14.331 16.7526 14.1671 16.7526 14.0033V9.99718C16.7526 9.97897 16.7526 9.97897 16.7526 9.96076ZM14.003 16.0245H9.99694C8.88616 16.0245 7.97569 15.114 7.97569 14.0033V9.99718C7.97569 8.88641 8.88616 7.97594 9.99694 7.97594H14.003C15.1138 7.97594 16.0243 8.88641 16.0243 9.99718V14.0033C16.0243 15.114 15.1138 16.0245 14.003 16.0245Z" fill="white"/>
<path d="M13.8028 8.77734H10.1973C9.41431 8.77734 8.77698 9.41467 8.77698 10.1977V13.8031C8.77698 14.5861 9.41431 15.2235 10.1973 15.2235H13.8028C14.5858 15.2235 15.2231 14.5861 15.2231 13.8031V10.1977C15.2231 9.41467 14.5858 8.77734 13.8028 8.77734ZM14.4947 13.8031C14.4947 14.1855 14.1852 14.4951 13.8028 14.4951H10.1973C9.81491 14.4951 9.50535 14.1855 9.50535 13.8031V10.1977C9.50535 9.81528 9.81491 9.50572 10.1973 9.50572H13.8028C14.1852 9.50572 14.4947 9.81528 14.4947 10.1977V13.8031Z" fill="white"/>
<path d="M11.1077 3.67822C10.9074 3.67822 10.7435 3.84211 10.7435 4.04241V7.61145C10.7435 7.81176 10.9074 7.97564 11.1077 7.97564C11.308 7.97564 11.4719 7.81176 11.4719 7.61145V4.04241C11.4719 3.84211 11.308 3.67822 11.1077 3.67822ZM10.8892 3.84211C10.962 3.78748 11.0349 3.75106 11.1077 3.75106C11.1988 3.75106 11.2716 3.76927 11.308 3.84211C11.4173 3.95136 11.4173 4.15167 11.308 4.26092C11.1988 4.37018 10.9985 4.37018 10.8892 4.26092C10.7799 4.15167 10.7799 3.95136 10.8892 3.84211Z" fill="white"/>
<path d="M11.8361 3.31413C11.4355 2.91352 10.7799 2.91352 10.3793 3.31413C9.97871 3.71473 9.97871 4.37027 10.3793 4.77088C10.4886 4.88014 10.616 4.95297 10.7435 5.0076C10.871 5.06223 10.9802 5.08044 11.1077 5.08044C11.2352 5.08044 11.3626 5.06223 11.4719 5.0076C11.5993 4.95297 11.7268 4.88014 11.8361 4.77088C12.2367 4.37027 12.2367 3.71473 11.8361 3.31413ZM11.308 4.26102C11.1987 4.37027 10.9984 4.37027 10.8892 4.26102C10.7799 4.15176 10.7799 3.95146 10.8892 3.8422C10.962 3.78757 11.0349 3.75115 11.1077 3.75115C11.1987 3.75115 11.2716 3.76936 11.308 3.8422C11.4172 3.95146 11.4172 4.15176 11.308 4.26102Z" fill="white"/>
<path d="M9.59636 7.88494C9.39605 7.88494 9.23217 7.72105 9.23217 7.52075V5.91832H6.51897C6.31867 5.91832 6.15479 5.75443 6.15479 5.55413C6.15479 5.35383 6.31867 5.18994 6.51897 5.18994H9.59636C9.79666 5.18994 9.96054 5.35383 9.96054 5.55413V7.52075C9.96054 7.72105 9.81487 7.88494 9.59636 7.88494Z" fill="white"/>
<path d="M17.0621 2.09412C16.9165 1.94844 16.6979 1.94844 16.5523 2.09412L15.8785 2.76787L13.8755 4.77091C13.8027 4.84374 13.7662 4.93479 13.7662 5.02584V7.61158C13.7662 7.81188 13.9301 7.97576 14.1304 7.97576C14.3307 7.97576 14.4946 7.81188 14.4946 7.61158V5.18972L16.3884 3.29594L17.0621 2.60398C17.2078 2.45831 17.2078 2.2398 17.0621 2.09412ZM17.0075 2.56757C16.8982 2.67682 16.6979 2.67682 16.5887 2.56757C16.4794 2.45831 16.4794 2.258 16.5887 2.14875C16.6615 2.09412 16.7344 2.0577 16.8072 2.0577C16.88 2.0577 16.9711 2.09412 17.0075 2.14875C17.1168 2.258 17.1168 2.45831 17.0075 2.56757Z" fill="white"/>
<path d="M17.5357 1.62077C17.1351 1.22016 16.4796 1.22016 16.079 1.62077C15.7694 1.93033 15.6966 2.40377 15.8787 2.76796C15.9333 2.87722 16.0061 2.98647 16.079 3.07752C16.17 3.16857 16.2793 3.24141 16.3885 3.29603C16.5342 3.36887 16.6799 3.38708 16.8074 3.38708C17.0805 3.38708 17.3354 3.27782 17.5357 3.07752C17.9363 2.67691 17.9363 2.02137 17.5357 1.62077ZM16.8074 2.05779C16.8802 2.05779 16.9712 2.09421 17.0077 2.14884C17.1169 2.2581 17.1169 2.4584 17.0077 2.56766C16.8984 2.67691 16.6981 2.67691 16.5888 2.56766C16.4796 2.4584 16.4796 2.2581 16.5888 2.14884C16.6617 2.09421 16.7345 2.05779 16.8074 2.05779Z" fill="white"/>
<path d="M12.6191 7.9758C12.4188 7.9758 12.2549 7.81191 12.2549 7.61161V6.13665C12.2549 5.93635 12.4188 5.77246 12.6191 5.77246C12.8194 5.77246 12.9833 5.93635 12.9833 6.13665V7.61161C12.9833 7.81191 12.8194 7.9758 12.6191 7.9758Z" fill="white"/>
<path d="M12.8923 16.0244C12.692 16.0244 12.5281 16.1883 12.5281 16.3886V19.9577C12.5281 20.158 12.692 20.3218 12.8923 20.3218C13.0926 20.3218 13.2565 20.158 13.2565 19.9577V16.3886C13.2565 16.1883 13.0926 16.0244 12.8923 16.0244ZM13.0926 20.1762C12.9833 20.2854 12.783 20.2854 12.6738 20.1762C12.6191 20.1215 12.5827 20.0305 12.5827 19.9577C12.5827 19.8666 12.6191 19.7938 12.6738 19.7391C12.7466 19.6845 12.8194 19.6481 12.8923 19.6481C12.9651 19.6481 13.0379 19.6845 13.0926 19.7574C13.2018 19.8666 13.2018 20.0669 13.0926 20.1762Z" fill="white"/>
<path d="M13.6207 19.2108C13.5114 19.1015 13.384 19.0287 13.2565 18.974C13.0198 18.883 12.7648 18.883 12.5281 18.974C12.4007 19.0287 12.2732 19.1015 12.1639 19.2108C11.9636 19.4111 11.8544 19.666 11.8544 19.9391C11.8544 20.2123 11.9636 20.4672 12.1639 20.6675C12.3642 20.886 12.6374 20.9771 12.8923 20.9771C13.1472 20.9771 13.4204 20.886 13.6207 20.6675C14.0213 20.2669 14.0213 19.6114 13.6207 19.2108ZM12.6738 19.7388C12.7466 19.6842 12.8195 19.6478 12.8923 19.6478C12.9651 19.6478 13.038 19.6842 13.0926 19.7571C13.2019 19.8663 13.2019 20.0666 13.0926 20.1759C12.9834 20.2851 12.783 20.2851 12.6738 20.1759C12.6192 20.1212 12.5827 20.0302 12.5827 19.9574C12.5827 19.8663 12.6192 19.7935 12.6738 19.7388Z" fill="white"/>
<path d="M17.4811 18.8102H14.4037C14.2034 18.8102 14.0396 18.6463 14.0396 18.446V16.4794C14.0396 16.2791 14.2034 16.1152 14.4037 16.1152C14.604 16.1152 14.7679 16.2791 14.7679 16.4794V18.0818H17.4811C17.6814 18.0818 17.8453 18.2457 17.8453 18.446C17.8453 18.6463 17.6814 18.8102 17.4811 18.8102Z" fill="white"/>
<path d="M9.86959 16.0244C9.66929 16.0244 9.5054 16.1883 9.5054 16.3886V18.8287L6.93787 21.3962C6.79219 21.5419 6.79219 21.7604 6.93787 21.906C7.01071 21.9789 7.10176 22.0153 7.1928 22.0153C7.28385 22.0153 7.3749 21.9789 7.44773 21.906L8.13969 21.2141L10.1245 19.2293C10.1974 19.1564 10.2338 19.0654 10.2338 18.9743V16.3886C10.2338 16.1883 10.0699 16.0244 9.86959 16.0244ZM7.39311 21.8514C7.28385 21.9607 7.08355 21.9607 6.97429 21.8514C6.86503 21.7422 6.86503 21.5419 6.97429 21.4326C7.04713 21.378 7.11996 21.3416 7.1928 21.3416C7.26564 21.3416 7.33848 21.378 7.39311 21.4326C7.50236 21.5419 7.50236 21.7422 7.39311 21.8514Z" fill="white"/>
<path d="M8.13966 21.2142C8.08503 21.105 8.0122 20.9957 7.92115 20.9047C7.8301 20.8136 7.73905 20.759 7.6298 20.7044C7.2474 20.5223 6.77396 20.5951 6.4644 20.9047C6.06379 21.3053 6.06379 21.9608 6.4644 22.3614C6.6647 22.5799 6.93784 22.671 7.19277 22.671C7.4477 22.671 7.72084 22.5799 7.92115 22.3614C8.23071 22.0519 8.30355 21.5966 8.13966 21.2142ZM6.97426 21.8516C6.865 21.7423 6.865 21.542 6.97426 21.4327C7.0471 21.3781 7.11993 21.3417 7.19277 21.3417C7.26561 21.3417 7.33845 21.3781 7.39308 21.4327C7.50233 21.542 7.50233 21.7423 7.39308 21.8516C7.28382 21.9608 7.08352 21.9608 6.97426 21.8516Z" fill="white"/>
<path d="M11.3809 18.2278C11.1806 18.2278 11.0167 18.0639 11.0167 17.8636V16.3886C11.0167 16.1883 11.1806 16.0244 11.3809 16.0244C11.5812 16.0244 11.7451 16.1883 11.7451 16.3886V17.8636C11.7451 18.0639 11.5812 18.2278 11.3809 18.2278Z" fill="white"/>
<path d="M19.9575 10.7437H16.3885C16.1882 10.7437 16.0243 10.9075 16.0243 11.1078C16.0243 11.3081 16.1882 11.472 16.3885 11.472H19.9575C20.1578 11.472 20.3217 11.3081 20.3217 11.1078C20.3217 10.9075 20.1578 10.7437 19.9575 10.7437ZM20.1578 11.3264C20.0486 11.4356 19.8483 11.4356 19.739 11.3264C19.6298 11.2171 19.6298 11.0168 19.739 10.9075C19.8119 10.8529 19.8847 10.8165 19.9575 10.8165C20.0304 10.8165 20.1032 10.8529 20.1578 10.9075C20.2671 11.0168 20.2671 11.2171 20.1578 11.3264Z" fill="white"/>
<path d="M20.686 10.3796C20.2854 9.97895 19.6298 9.97895 19.2292 10.3796C19.1199 10.4888 19.0471 10.6163 18.9925 10.7437C18.9014 10.9805 18.9014 11.2354 18.9925 11.4721C19.0471 11.5996 19.1199 11.7271 19.2292 11.8363C19.4295 12.0548 19.7027 12.1459 19.9576 12.1459C20.2125 12.1459 20.4857 12.0366 20.686 11.8363C21.0866 11.4357 21.0866 10.7802 20.686 10.3796ZM20.1579 11.3264C20.0486 11.4357 19.8483 11.4357 19.7391 11.3264C19.6298 11.2172 19.6298 11.0169 19.7391 10.9076C19.8119 10.853 19.8847 10.8166 19.9576 10.8166C20.0304 10.8166 20.1033 10.853 20.1579 10.9076C20.2671 11.0169 20.2671 11.2172 20.1579 11.3264Z" fill="white"/>
<path d="M18.4462 9.96055H16.4795C16.2792 9.96055 16.1154 9.79666 16.1154 9.59636C16.1154 9.39606 16.2792 9.23217 16.4795 9.23217H18.082V6.51897C18.082 6.31867 18.2458 6.15479 18.4462 6.15479C18.6465 6.15479 18.8103 6.31867 18.8103 6.51897V9.59636C18.8103 9.81487 18.6465 9.96055 18.4462 9.96055Z" fill="white"/>
<path d="M21.9059 16.5521L21.2322 15.8784L19.2291 13.8754C19.1563 13.8025 19.0653 13.7661 18.9742 13.7661H16.3885C16.1882 13.7661 16.0243 13.93 16.0243 14.1303C16.0243 14.3306 16.1882 14.4945 16.3885 14.4945H18.8285L20.7223 16.3883L21.3961 17.062C21.4689 17.1348 21.5599 17.1713 21.651 17.1713C21.742 17.1713 21.8331 17.1348 21.9059 17.062C22.0516 16.9163 22.0516 16.6978 21.9059 16.5521ZM21.8513 17.0256C21.742 17.1348 21.5417 17.1348 21.4325 17.0256C21.3232 16.9163 21.3232 16.716 21.4325 16.6068C21.5053 16.5521 21.5782 16.5157 21.651 16.5157C21.7238 16.5157 21.7967 16.5339 21.8513 16.6068C21.9606 16.716 21.9606 16.9163 21.8513 17.0256Z" fill="white"/>
<path d="M22.3795 16.079C22.0699 15.7694 21.5965 15.6966 21.2323 15.8787C21.123 15.9333 21.0138 16.0061 20.9227 16.079C20.8317 16.17 20.7588 16.2611 20.7224 16.3885C20.5403 16.7709 20.6132 17.2262 20.9227 17.5357C21.123 17.7543 21.3962 17.8453 21.6511 17.8453C21.906 17.8453 22.1792 17.736 22.3795 17.5357C22.7801 17.1351 22.7801 16.4796 22.3795 16.079ZM21.4326 17.0259C21.3233 16.9166 21.3233 16.7163 21.4326 16.6071C21.5054 16.5524 21.5783 16.516 21.6511 16.516C21.7239 16.516 21.7968 16.5342 21.8514 16.6071C21.9607 16.7163 21.9607 16.9166 21.8514 17.0259C21.7421 17.1351 21.5418 17.1351 21.4326 17.0259Z" fill="white"/>
<path d="M17.8634 12.9833H16.3885C16.1882 12.9833 16.0243 12.8194 16.0243 12.6191C16.0243 12.4188 16.1882 12.2549 16.3885 12.2549H17.8634C18.0637 12.2549 18.2276 12.4188 18.2276 12.6191C18.2276 12.8194 18.0637 12.9833 17.8634 12.9833Z" fill="white"/>
<path d="M7.61158 12.5283H4.04253C3.84223 12.5283 3.67834 12.6922 3.67834 12.8925C3.67834 13.0928 3.84223 13.2567 4.04253 13.2567H7.61158C7.81188 13.2567 7.97577 13.0928 7.97577 12.8925C7.97577 12.6922 7.81188 12.5283 7.61158 12.5283ZM4.24284 13.0928C4.13358 13.2021 3.93328 13.2021 3.82402 13.0928C3.71476 12.9836 3.71476 12.7833 3.82402 12.674C3.87865 12.6194 3.9697 12.5829 4.04253 12.5829C4.13358 12.5829 4.20642 12.6194 4.24284 12.674C4.35209 12.7833 4.35209 12.9836 4.24284 13.0928Z" fill="white"/>
<path d="M5.0076 12.5284C4.95297 12.3827 4.88014 12.2552 4.77088 12.146C4.57058 11.9457 4.31564 11.8364 4.0425 11.8364C3.76936 11.8364 3.51443 11.9457 3.31413 12.146C2.91352 12.5466 2.91352 13.2021 3.31413 13.6027C3.51443 13.8213 3.78757 13.9123 4.0425 13.9123C4.31564 13.9123 4.57058 13.8213 4.77088 13.6027C4.88014 13.4935 4.95297 13.3842 4.98939 13.2568C5.09865 13.02 5.09865 12.7651 5.0076 12.5284ZM3.82399 13.0929C3.71473 12.9836 3.71473 12.7833 3.82399 12.6741C3.87862 12.6194 3.96967 12.583 4.0425 12.583C4.13355 12.583 4.20639 12.6194 4.24281 12.6741C4.35206 12.7833 4.35206 12.9836 4.24281 13.0929C4.13355 13.2021 3.93325 13.2021 3.82399 13.0929Z" fill="white"/>
<path d="M5.55389 17.8458C5.35358 17.8458 5.1897 17.6819 5.1897 17.4816V14.4042C5.1897 14.2039 5.35358 14.04 5.55389 14.04H7.5205C7.72081 14.04 7.88469 14.2039 7.88469 14.4042C7.88469 14.6045 7.72081 14.7684 7.5205 14.7684H5.91807V17.4816C5.91807 17.6819 5.75419 17.8458 5.55389 17.8458Z" fill="white"/>
<path d="M7.59336 9.50589H5.17151L2.60398 6.93836C2.45831 6.79268 2.23979 6.79268 2.09412 6.93836C1.94844 7.08403 1.94844 7.30255 2.09412 7.44822L2.76787 8.12197L4.7709 10.125C4.84374 10.1978 4.93479 10.2343 5.02583 10.2343H7.61157C7.81187 10.2343 7.95755 10.0704 7.95755 9.87008C7.95755 9.66978 7.79366 9.50589 7.59336 9.50589ZM2.54935 7.39359C2.4401 7.50285 2.23979 7.50285 2.13054 7.39359C2.02128 7.28434 2.02128 7.08403 2.13054 6.97478C2.20338 6.92015 2.27621 6.88373 2.34905 6.88373C2.4401 6.88373 2.51294 6.92015 2.54935 6.97478C2.65861 7.08403 2.65861 7.28434 2.54935 7.39359Z" fill="white"/>
<path d="M3.0774 6.44645C2.67679 6.04584 2.02125 6.04584 1.62065 6.44645C1.22004 6.84706 1.22004 7.5026 1.62065 7.9032C1.82095 8.10351 2.09409 8.21276 2.34902 8.21276C2.4947 8.21276 2.64037 8.19455 2.76784 8.12172C2.8771 8.06709 2.98635 7.99425 3.0774 7.9032C3.16845 7.81216 3.22308 7.72111 3.2777 7.61185C3.4598 7.22946 3.38696 6.75601 3.0774 6.44645ZM2.34902 6.88348C2.44007 6.88348 2.51291 6.9199 2.54933 6.97452C2.65858 7.08378 2.65858 7.28408 2.54933 7.39334C2.44007 7.5026 2.23977 7.5026 2.13051 7.39334C2.02125 7.28408 2.02125 7.08378 2.13051 6.97452C2.20335 6.9199 2.27619 6.88348 2.34902 6.88348Z" fill="white"/>
<path d="M7.61161 11.7455H6.13665C5.93635 11.7455 5.77246 11.5816 5.77246 11.3813C5.77246 11.181 5.93635 11.0171 6.13665 11.0171H7.61161C7.81191 11.0171 7.9758 11.181 7.9758 11.3813C7.9758 11.5816 7.81191 11.7455 7.61161 11.7455Z" fill="white"/>
</svg>
