<svg width="24" height="24" viewBox="0 0 24 24" fill="none" xmlns="http://www.w3.org/2000/svg">
<path d="M4.09781 10.8387H2.25136C2.0911 11.2881 1.66529 11.6129 1.16129 11.6129C0.521032 11.6129 0 11.0919 0 10.4516C0 9.81135 0.521032 9.29032 1.16129 9.29032C1.66529 9.29032 2.0911 9.6151 2.25136 10.0645H4.41832L5.19252 10.8387H7.10826C7.54568 8.99613 8.99613 7.54606 10.8387 7.10826V5.19252L10.0645 4.41832V2.25135C9.6151 2.0911 9.29032 1.66529 9.29032 1.16129C9.29032 0.521032 9.81136 0 10.4516 0C11.0919 0 11.6129 0.521032 11.6129 1.16129C11.6129 1.66529 11.2881 2.0911 10.8387 2.25135V4.09781L11.6129 4.872V6.98748C11.741 6.97742 11.8692 6.96774 12 6.96774C12.1308 6.96774 12.259 6.97742 12.3871 6.98748V4.872L13.1613 4.09781V2.25135C12.7119 2.0911 12.3871 1.66529 12.3871 1.16129C12.3871 0.521032 12.9081 0 13.5484 0C14.1886 0 14.7097 0.521032 14.7097 1.16129C14.7097 1.66529 14.3849 2.0911 13.9355 2.25135V4.41832L13.1613 5.19252V7.10826C15.0039 7.54568 16.4539 8.99613 16.8917 10.8387H18.8075L19.5817 10.0645H21.7486C21.9089 9.6151 22.3347 9.29032 22.8387 9.29032C23.479 9.29032 24 9.81135 24 10.4516C24 11.0919 23.479 11.6129 22.8387 11.6129C22.3347 11.6129 21.9089 11.2881 21.7486 10.8387H19.9022L19.128 11.6129H17.0125C17.0226 11.741 17.0323 11.8692 17.0323 12C17.0323 12.1308 17.0226 12.259 17.0125 12.3871H19.128L19.9022 13.1613H21.7486C21.9089 12.7119 22.3347 12.3871 22.8387 12.3871C23.479 12.3871 24 12.9081 24 13.5484C24 14.1886 23.479 14.7097 22.8387 14.7097C22.3347 14.7097 21.9089 14.3849 21.7486 13.9355H19.5817L18.8075 13.1613H16.8917C16.4543 15.0039 15.0039 16.4539 13.1613 16.8917V18.8075L13.9355 19.5817V21.7486C14.3849 21.9089 14.7097 22.3347 14.7097 22.8387C14.7097 23.479 14.1886 24 13.5484 24C12.9081 24 12.3871 23.479 12.3871 22.8387C12.3871 22.3347 12.7119 21.9089 13.1613 21.7486V19.9022L12.3871 19.128V17.0125C12.259 17.0226 12.1308 17.0323 12 17.0323C11.8692 17.0323 11.741 17.0226 11.6129 17.0125V19.128L10.8387 19.9022V21.7486C11.2881 21.9089 11.6129 22.3347 11.6129 22.8387C11.6129 23.479 11.0919 24 10.4516 24C9.81136 24 9.29032 23.479 9.29032 22.8387C9.29032 22.3347 9.6151 21.9089 10.0645 21.7486V19.5817L10.8387 18.8075V16.8917C8.99613 16.4543 7.54606 15.0039 7.10826 13.1613H5.19252L4.41832 13.9355H2.25136C2.0911 14.3849 1.66529 14.7097 1.16129 14.7097C0.521032 14.7097 0 14.1886 0 13.5484C0 12.9081 0.521032 12.3871 1.16129 12.3871C1.66529 12.3871 2.0911 12.7119 2.25136 13.1613H4.09781L4.872 12.3871H6.98748C6.97742 12.259 6.96774 12.1308 6.96774 12C6.96774 11.8692 6.97742 11.741 6.98748 11.6129H4.872L4.09781 10.8387ZM1.16129 10.0645C0.948 10.0645 0.774195 10.2383 0.774195 10.4516C0.774195 10.6649 0.948 10.8387 1.16129 10.8387C1.37458 10.8387 1.54839 10.6649 1.54839 10.4516C1.54839 10.2383 1.37458 10.0645 1.16129 10.0645ZM10.4516 0.774194C10.2383 0.774194 10.0645 0.948 10.0645 1.16129C10.0645 1.37458 10.2383 1.54839 10.4516 1.54839C10.6649 1.54839 10.8387 1.37458 10.8387 1.16129C10.8387 0.948 10.6649 0.774194 10.4516 0.774194ZM13.5484 0.774194C13.3351 0.774194 13.1613 0.948 13.1613 1.16129C13.1613 1.37458 13.3351 1.54839 13.5484 1.54839C13.7617 1.54839 13.9355 1.37458 13.9355 1.16129C13.9355 0.948 13.7617 0.774194 13.5484 0.774194ZM22.8387 10.8387C23.052 10.8387 23.2258 10.6649 23.2258 10.4516C23.2258 10.2383 23.052 10.0645 22.8387 10.0645C22.6254 10.0645 22.4516 10.2383 22.4516 10.4516C22.4516 10.6649 22.6254 10.8387 22.8387 10.8387ZM22.8387 13.9355C23.052 13.9355 23.2258 13.7617 23.2258 13.5484C23.2258 13.3351 23.052 13.1613 22.8387 13.1613C22.6254 13.1613 22.4516 13.3351 22.4516 13.5484C22.4516 13.7617 22.6254 13.9355 22.8387 13.9355ZM13.5484 23.2258C13.7617 23.2258 13.9355 23.052 13.9355 22.8387C13.9355 22.6254 13.7617 22.4516 13.5484 22.4516C13.3351 22.4516 13.1613 22.6254 13.1613 22.8387C13.1613 23.052 13.3351 23.2258 13.5484 23.2258ZM10.4516 23.2258C10.6649 23.2258 10.8387 23.052 10.8387 22.8387C10.8387 22.6254 10.6649 22.4516 10.4516 22.4516C10.2383 22.4516 10.0645 22.6254 10.0645 22.8387C10.0645 23.052 10.2383 23.2258 10.4516 23.2258ZM1.16129 13.1613C0.948 13.1613 0.774195 13.3351 0.774195 13.5484C0.774195 13.7617 0.948 13.9355 1.16129 13.9355C1.37458 13.9355 1.54839 13.7617 1.54839 13.5484C1.54839 13.3351 1.37458 13.1613 1.16129 13.1613ZM12 16.2581C14.3477 16.2581 16.2581 14.3477 16.2581 12C16.2581 9.65226 14.3477 7.74194 12 7.74194C9.65226 7.74194 7.74194 9.65226 7.74194 12C7.74194 14.3477 9.65226 16.2581 12 16.2581Z" fill="#B2BDFF"/>
</svg>
