<svg width="17" height="22" viewBox="0 0 17 22" fill="none" xmlns="http://www.w3.org/2000/svg">
<path d="M15.6702 12.2003L12.3853 7.0508C12.8507 6.80621 13.1691 6.31814 13.1691 5.75685C13.1691 5.14249 12.7877 4.61583 12.2494 4.40024L13.2445 0.921114C13.2875 0.771015 13.2456 0.609486 13.1353 0.499093C12.4733 -0.162837 11.3963 -0.162837 10.7343 0.499093C10.5759 0.657442 10.3654 0.744631 10.1415 0.744631C9.91757 0.744631 9.70706 0.657442 9.54772 0.498061L9.54561 0.495956C8.886 -0.16374 7.81082 -0.165588 7.14854 0.492045L7.13621 0.504335C6.80933 0.828897 6.27842 0.827952 5.95274 0.50223L5.9496 0.499093C5.28763 -0.162837 4.2106 -0.162837 3.54862 0.499093C3.43819 0.609572 3.39638 0.77123 3.43939 0.921415L4.43667 4.39943C3.89721 4.61445 3.51481 5.14167 3.51481 5.75689C3.51481 6.31818 3.83314 6.80625 4.2986 7.05084L1.01366 12.2003C-0.257173 14.1925 -0.337701 16.6189 0.798246 18.6909C1.93419 20.7629 4.02311 22 6.38615 22H10.2977C12.6606 22 14.7496 20.7629 15.8856 18.6909C17.0215 16.6189 16.941 14.1925 15.6702 12.2003ZM5.34186 1.10679L5.345 1.10993C6.00469 1.76958 7.07983 1.77139 7.74206 1.11384L7.7544 1.10155C8.08124 0.776988 8.61215 0.777933 8.93886 1.10464L8.94096 1.10675C9.60294 1.76868 10.68 1.76868 11.3419 1.10675C11.6113 0.837406 12.0198 0.790008 12.3381 0.964558L11.3854 4.29582H5.30108L4.34583 0.964515C4.66416 0.790008 5.07256 0.837492 5.34186 1.10679ZM15.132 18.2778C14.1492 20.0704 12.342 21.1406 10.2977 21.1406H6.38619C4.34187 21.1406 2.53467 20.0704 1.55192 18.2778C0.569166 16.4852 0.638822 14.386 1.73824 12.6625L5.2114 7.21787H6.40824C6.64557 7.21787 6.83795 7.02549 6.83795 6.78816C6.83795 6.55083 6.64557 6.35844 6.40824 6.35844H4.97583C4.64409 6.35844 4.37423 6.08858 4.37423 5.75685C4.37423 5.42511 4.64409 5.15525 4.97583 5.15525H4.97725H11.708C12.0398 5.15525 12.3096 5.42511 12.3096 5.75685C12.3096 6.08858 12.0398 6.35844 11.708 6.35844H10.2757C10.0383 6.35844 9.84594 6.55083 9.84594 6.78816C9.84594 7.02549 10.0383 7.21787 10.2757 7.21787H11.4724L14.9456 12.6625C16.0451 14.386 16.1147 16.4851 15.132 18.2778Z" fill="white"/>
<path d="M9.09952 14.0334C8.99171 13.9953 8.88166 13.9556 8.77165 13.9144V11.9669C9.063 12.0526 9.25757 12.1916 9.26582 12.1976C9.45485 12.3392 9.72304 12.3017 9.86587 12.1132C10.0092 11.924 9.97201 11.6545 9.78285 11.5111C9.75763 11.492 9.35808 11.1954 8.77165 11.0831V10.6555C8.77165 10.4182 8.57927 10.2258 8.34194 10.2258C8.10461 10.2258 7.91222 10.4182 7.91222 10.6555V11.08C7.83943 11.094 7.76565 11.1117 7.69088 11.1341C7.0861 11.3159 6.63404 11.8331 6.5111 12.4839C6.3989 13.0782 6.58931 13.6514 7.00802 13.9798C7.23525 14.158 7.51917 14.3207 7.91222 14.4935V16.9857C7.57383 16.9643 7.34745 16.8873 6.97008 16.6404C6.77151 16.5105 6.50513 16.5662 6.37523 16.7648C6.24528 16.9634 6.30097 17.2297 6.49959 17.3596C7.04988 17.7196 7.42248 17.8216 7.91222 17.8457V18.2901C7.91222 18.5274 8.10461 18.7198 8.34194 18.7198C8.57927 18.7198 8.77165 18.5274 8.77165 18.2901V17.8011C9.69184 17.5995 10.23 16.8317 10.3508 16.1134C10.5086 15.1743 10.0175 14.3578 9.09952 14.0334ZM7.53842 13.3035C7.37324 13.1739 7.30319 12.921 7.35562 12.6433C7.40383 12.388 7.57563 12.0801 7.91222 11.9662V13.5399C7.77094 13.4646 7.64344 13.3859 7.53842 13.3035ZM9.50319 15.9708C9.44132 16.3389 9.1929 16.7292 8.77161 16.9017V14.8288C8.78562 14.8338 8.79889 14.8387 8.81308 14.8437C9.58351 15.116 9.53611 15.7753 9.50319 15.9708Z" fill="white"/>
<path d="M8.34194 7.21801C8.45496 7.21801 8.56582 7.17203 8.64575 7.0921C8.72568 7.01218 8.77166 6.90131 8.77166 6.78829C8.77166 6.67528 8.72568 6.56441 8.64575 6.48449C8.56582 6.40456 8.45496 6.35858 8.34194 6.35858C8.22893 6.35858 8.11806 6.40456 8.03814 6.48449C7.95821 6.56441 7.91223 6.67528 7.91223 6.78829C7.91223 6.90131 7.95821 7.01218 8.03814 7.0921C8.11806 7.17203 8.22889 7.21801 8.34194 7.21801Z" fill="white"/>
</svg>
